<svg id="svg" version="1.1" viewBox="0 0 300 300" width="300" height="300" xmlns="http://www.w3.org/2000/svg"><svg xmlns="http://www.w3.org/2000/svg"><defs><clipPath id="clip-1"><rect x="0" y="0" transform="scale(0.14648,0.14648)" width="2048" height="2048" fill="none"/></clipPath><linearGradient x1="195.94482" y1="169.88525" x2="104.8311" y2="71.0354" gradientUnits="userSpaceOnUse" id="color-1"><stop offset="0" stop-color="#001634"/><stop offset="1" stop-color="#28326b"/></linearGradient><linearGradient x1="186.01904" y1="94.16396" x2="180.86279" y2="78.63032" gradientUnits="userSpaceOnUse" id="color-2"><stop offset="0" stop-color="#0a1e46"/><stop offset="1" stop-color="#3f4489"/></linearGradient><linearGradient x1="164.61035" y1="100.67417" x2="165.01904" y2="59.74131" gradientUnits="userSpaceOnUse" id="color-3"><stop offset="0" stop-color="#1a2976"/><stop offset="1" stop-color="#3737c7"/></linearGradient><linearGradient x1="116.29556" y1="112.39453" x2="117.6249" y2="86.82349" gradientUnits="userSpaceOnUse" id="color-4"><stop offset="0" stop-color="#2756fd"/><stop offset="1" stop-color="#3389fe"/></linearGradient><linearGradient x1="148.63184" y1="167.98682" x2="151.21582" y2="145.97373" gradientUnits="userSpaceOnUse" id="color-5"><stop offset="0" stop-color="#3c2bfe"/><stop offset="1" stop-color="#6369fc"/></linearGradient><linearGradient x1="149.36572" y1="179.72314" x2="150.22852" y2="164.04932" gradientUnits="userSpaceOnUse" id="color-6"><stop offset="0" stop-color="#332cbb"/><stop offset="1" stop-color="#523bff"/></linearGradient></defs><g clip-path="url(#clip-1)" fill="none" fill-rule="nonzero" stroke="none" stroke-width="1" stroke-linecap="butt" stroke-linejoin="miter" stroke-miterlimit="10" stroke-dasharray="" stroke-dashoffset="0" font-family="none" font-weight="none" font-size="none" text-anchor="none" style="mix-blend-mode: normal"><path d="M0,0h300v300h-300z" fill="#ffffff"/><path d="M122.30581,89.94858c0.02754,-1.829 1.03843,-2.89819 2.57944,-3.71133c5.53682,-2.92134 11.19624,-5.6064 16.81919,-8.35693c8.43618,-4.13115 16.90591,-8.19155 25.41079,-12.18062c3.21533,-1.50571 11.00098,-5.4022 14.24121,-5.99736c1.75781,-0.323 14.31592,6.44282 17.04346,7.66714c4.13818,1.85698 8.58984,3.43477 9.00879,8.35166c3.54639,1.10991 4.88379,3.77944 4.96582,7.33198c0.08643,3.80054 0.04395,7.60796 0.04395,11.41011l-0.00879,21.62563l0.00732,23.12842c0.00146,4.52769 0.4292,9.98438 -0.60498,14.32764c-0.61084,2.56641 -3.12158,5.69092 -5.46826,6.87451c-1.82812,0.87891 -4.25098,1.83545 -6.1875,2.64258l-11.25879,4.6875c-8.34375,3.48633 -18.06006,7.80322 -26.49609,10.88086c0.03955,2.41992 0.66357,5.18555 -1.4707,6.71777l-0.12158,0.08789c-2.56641,0.16553 -5.99854,0.07324 -8.63232,0.07178l-14.54824,-0.00293l-16.89521,0.00439c-2.96602,0.00293 -5.99385,0.01465 -8.95034,-0.02051c-0.95273,-0.01172 -1.88247,-0.30762 -1.88276,-1.35645c-0.00059,-1.67871 -0.61216,-3.6123 1.21875,-4.28613c0.54404,-0.09961 1.38223,-0.09375 1.95806,-0.10986c-0.27905,-2.60303 -0.08262,-7.7915 -0.1229,-10.65234c-6.30498,-2.77881 -12.75923,-6.01904 -18.93721,-9.0791c-2.50503,-1.24072 -4.87456,-4.88086 -5.30728,-7.6084c-0.323,-2.03467 -0.23232,-4.67578 -0.2291,-6.81665l0.00571,-9.86953c0.00234,-11.24927 -0.16187,-22.89844 0.01904,-34.1083c-0.14033,-3.38071 0.01274,-7.43877 -0.02871,-10.8769c-0.02988,-2.48437 -0.1125,-6.97881 0.12261,-9.33369c0.21255,-1.35264 0.38716,-1.96069 0.97808,-3.15132c1.14492,-1.71577 2.03115,-0.83379 2.19258,-3.03062l0.03076,0.80361c4.72471,3.65479 12.29985,5.8166 17.59351,8.81938c0.69712,0.39536 2.52905,0.77681 3.00293,1.2397c0.81094,0.45557 2.129,0.94336 3.04292,1.34883l6.55635,2.93892c0.28096,-0.20757 0.17446,-0.07295 0.30952,-0.41133z" fill="url(#color-1)"/><path d="M182.44482,76.10083c2.73047,-0.96855 3.62256,-1.48242 6.49219,-0.63003c0.51416,0.473 0.55225,0.50317 0.89795,1.09819c0.31348,0.63911 0.43359,0.93794 0.65332,1.61543c3.01758,-1.16367 3.38818,-1.54482 6.03076,0.64717l-0.5332,0.19966l0.75586,-0.00454l0.48486,0.6561c0.38672,0.59707 0.28418,1.94355 0.27539,2.72725l1.021,-0.34556c1.75488,-0.68071 3.63721,-1.4644 5.42139,-2.01094c3.44824,-1.05703 5.14746,1.47188 5.14453,4.72705c-0.00439,4.15034 -0.01904,8.39487 -0.01611,12.58638l0.01172,25.94663l-0.00586,17.2147c0.00586,3.20933 0.05566,6.43799 -0.04541,9.64307c-0.0835,2.62646 -1.62744,5.48291 -4.00488,6.69873c-1.66992,0.85547 -3.58594,1.56445 -5.33203,2.28076l-10.32422,4.26416l-16.77393,6.93896c-2.19434,0.89648 -4.30518,1.87939 -6.57422,2.68506c-1.32715,0.47168 -3.08789,0.33691 -3.52295,-1.34766c-0.2915,-1.8501 -0.15674,-4.08545 -0.14355,-6.00732l0.02783,-13.02832c0,-2.45215 0.07324,-4.90283 -0.03662,-7.35278c-0.14795,-3.29209 -1.28906,-4.4981 -3.95215,-6.12422c0.17432,-1.45679 0.06152,-5.20137 0.05713,-6.86851l0.00732,-19.77012c0,-2.60581 -0.16992,-7.7001 0.04688,-10.10845c0.09668,-1.03462 0.36768,-2.04551 0.7998,-2.98989c1.90576,-4.18843 6.35889,-4.90313 10.51465,-6.44063l0.9873,-0.35991c0.63281,-0.49937 0.01172,-2.50239 0.54346,-3.62974c0.64307,-1.36025 4.2627,-2.27095 5.85938,-2.92192c0.00293,-1.09028 -0.02344,-2.2519 0.10693,-3.32856c0.32959,-1.27764 0.49658,-1.75972 1.03418,-2.95547c0.14502,-0.14766 0.89209,-1.48125 1.29492,-1.97373c0.70898,-0.3665 1.64355,-1.75767 2.79639,-1.73101z" fill="#ffffff"/><path d="M182.44482,76.10083c2.73047,-0.96855 3.62256,-1.48242 6.49219,-0.63003c0.51416,0.473 0.55225,0.50317 0.89795,1.09819c0.31348,0.63911 0.43359,0.93794 0.65332,1.61543c3.01758,-1.16367 3.38818,-1.54482 6.03076,0.64717l-0.5332,0.19966l0.75586,-0.00454l0.48486,0.6561c0.38672,0.59707 0.28418,1.94355 0.27539,2.72725c0.00439,1.07593 -0.00439,2.23022 0.03076,3.30117c0.08203,2.54692 0.01318,4.00928 -2.63086,5.02295c-6.89209,2.64272 -13.85449,5.12153 -20.75244,7.75225c-4.76514,1.79502 -2.55908,-4.15151 -3.33984,-5.84517c0.63281,-0.49937 0.01172,-2.50239 0.54346,-3.62974c0.64307,-1.36025 4.2627,-2.27095 5.85938,-2.92192c0.00293,-1.09028 -0.02344,-2.2519 0.10693,-3.32856c0.32959,-1.27764 0.49658,-1.75972 1.03418,-2.95547c0.14502,-0.14766 0.89209,-1.48125 1.29492,-1.97373c0.70898,-0.3665 1.64355,-1.75767 2.79639,-1.73101z" fill="url(#color-2)"/><path d="M182.44482,76.10083c2.73047,-0.96855 3.62256,-1.48242 6.49219,-0.63003c0.51416,0.473 0.55225,0.50317 0.89795,1.09819l-0.97266,-0.37632c-3.48047,1.81011 -5.17969,2.26626 -9.0835,3.02944c-0.39404,0.07705 -0.55078,0.25415 -0.83789,0.52822c-0.48779,1.28818 -1.0752,2.35239 -1.50586,3.44531l-0.11572,-0.43462c0.32959,-1.27764 0.49658,-1.75972 1.03418,-2.95547c0.14502,-0.14766 0.89209,-1.48125 1.29492,-1.97373c0.70898,-0.3665 1.64355,-1.75767 2.79639,-1.73101z" fill="#2f37b5"/><path d="M179.64844,77.83184c0.70898,-0.3665 1.64355,-1.75767 2.79639,-1.73101c-1.2832,0.90923 -2.98389,2.02866 -3.50391,3.64951c-0.48779,1.28818 -1.0752,2.35239 -1.50586,3.44531l-0.11572,-0.43462c0.32959,-1.27764 0.49658,-1.75972 1.03418,-2.95547c0.14502,-0.14766 0.89209,-1.48125 1.29492,-1.97373z" fill="#6464c5"/><path d="M190.48828,78.18442c3.01758,-1.16367 3.38818,-1.54482 6.03076,0.64717l-0.5332,0.19966l-4.08984,1.61089c-0.36328,0.08071 -0.9624,0.32563 -1.33594,0.46494c0.01318,-1.06919 0.00879,-1.86006 -0.07178,-2.92266z" fill="#0b1d45"/><path d="M195.98584,79.03125l0.75586,-0.00454l0.48486,0.6561l-0.29004,0.03735c-1.59668,-0.72598 -3.81738,1.43848 -5.04053,0.92197z" fill="#2f37b5"/><path d="M174.4292,143.70864c0.20801,-0.02139 0.38086,-0.01963 0.58594,0.03589c0.38818,0.10459 0.62549,0.32241 0.79688,0.68086c0.41162,0.85371 0.19922,7.55654 -0.22119,8.43545c-0.21094,0.44238 -0.53613,0.78809 -0.95215,1.0459c-0.9624,0.59619 -4.69043,1.69922 -6.01465,2.20459c-0.45264,-0.01172 -0.3501,-0.02197 -0.80273,-0.17285c-1.17334,-1.12061 -0.94629,-8.20312 -0.02197,-9.54419c0.52881,-0.76743 5.53711,-2.30889 6.62988,-2.68564z" fill="#aaaff7"/><path d="M200.92822,120.71323c1.86768,0.49087 1.68604,2.64785 0.31787,3.31685c-1.70508,0.83335 -3.75732,1.50527 -5.55322,2.17485l-11.80078,4.38047c-2.05225,-0.44561 -1.51318,-2.74849 -0.31641,-3.33105c1.75781,-0.85591 4.16455,-1.66113 5.99561,-2.34111c3.7749,-1.42676 7.56152,-2.82671 11.35693,-4.2z" fill="#0b1d45"/><path d="M200.69385,139.00957c2.17822,0.05669 1.92773,2.64331 0.50098,3.29136c-1.78271,0.80977 -3.75439,1.48301 -5.59717,2.17119l-11.46387,4.30327c-2.31152,-0.00879 -1.7915,-2.68359 -0.54199,-3.28901c1.64941,-0.79893 3.68262,-1.46865 5.42432,-2.11875z" fill="#0b1d45"/><path d="M200.84326,102.6791c2.08447,0.23936 1.77832,2.55894 0.37207,3.30029c-0.98437,0.51943 -2.29248,0.97383 -3.35596,1.35747c-4.63623,1.67271 -9.2373,3.59063 -13.9043,5.16548c-1.99512,-0.15176 -1.59668,-2.61123 -0.56982,-3.14678c1.62451,-0.84727 3.7793,-1.55332 5.521,-2.2084z" fill="#0b1d45"/><path d="M175.53223,125.63218c2.84766,0.42715 0.39551,3.68921 -0.49951,4.90063c-1.48682,2.01284 -2.81104,4.70347 -4.76953,6.25869c-0.8042,0.00645 -2.21924,-1.40464 -2.89893,-1.99424c-0.60937,-0.49673 -1.17187,-0.82632 -1.33594,-1.64165c-0.18311,-0.91055 0.08643,-1.91045 1.14404,-2.05254c0.97998,-0.1314 2.29102,1.22534 3,1.82197c1.00049,-1.61909 4.021,-6.45732 5.35986,-7.29287z" fill="#4350fc"/><path d="M175.37988,108.35288c2.90771,-0.00513 0.87305,3.19702 -0.01904,4.32231c-1.34912,1.70215 -3.24902,5.52349 -5.00977,6.69111c-1.02246,-0.01084 -1.77246,-0.87217 -2.58105,-1.5583c-0.41748,-0.32988 -1.22754,-0.92021 -1.45166,-1.27881c-0.67529,-1.07988 -0.36182,-2.52466 1.00049,-2.72065c0.91113,-0.13096 2.31592,1.29683 2.89014,1.77935c0.98438,-1.57471 3.92725,-6.25649 5.1709,-7.23501z" fill="#4350fc"/><path d="M122.30581,89.94858c0.02754,-1.829 1.03843,-2.89819 2.57944,-3.71133c5.53682,-2.92134 11.19624,-5.6064 16.81919,-8.35693c8.43618,-4.13115 16.90591,-8.19155 25.41079,-12.18062c3.21533,-1.50571 11.00098,-5.4022 14.24121,-5.99736c1.75781,-0.323 14.31592,6.44282 17.04346,7.66714c4.13818,1.85698 8.58984,3.43477 9.00879,8.35166c-3.62402,-0.05859 -5.2207,1.24731 -8.56201,2.41157c-0.60205,0.21006 -1.70654,0.68232 -2.32764,0.69888c-2.64258,-2.19199 -3.01318,-1.81084 -6.03076,-0.64717c-0.21973,-0.67749 -0.33984,-0.97632 -0.65332,-1.61543c-0.3457,-0.59502 -0.38379,-0.6252 -0.89795,-1.09819c-2.86963,-0.85239 -3.76172,-0.33853 -6.49219,0.63003c-1.15283,-0.02666 -2.0874,1.3645 -2.79639,1.73101c-0.40283,0.49248 -1.1499,1.82607 -1.29492,1.97373c-0.5376,1.19575 -0.70459,1.67783 -1.03418,2.95547c-0.13037,1.07666 -0.104,2.23828 -0.10693,3.32856c-1.59668,0.65098 -5.21631,1.56167 -5.85937,2.92192c-0.53174,1.12734 0.08936,3.13037 -0.54346,3.62974l-0.9873,0.35991c-0.23584,-1.3916 -0.22119,-2.39019 0.07617,-3.76875l0.03516,-0.16333l-0.03223,0.03252c-0.51562,0.052 -1.32715,0.41001 -1.9541,0.53394l-0.28857,0.05449c-0.51709,0.52939 -2.41113,0.99609 -3.10254,1.39189c-1.69922,0.50552 -3.76025,1.66758 -5.41406,2.24473c-1.31543,0.29883 -2.66309,-0.0498 -3.82764,0.80347c-2.01855,1.47935 -3.1377,3.81855 -3.66504,6.19116c-1.90723,0.6063 -3.9375,0.72524 -5.90347,0.34585c-2.1917,-0.42246 -4.7061,-1.69863 -6.76201,-2.64536c-3.87378,-1.75269 -7.7146,-3.57744 -11.52026,-5.47368c-1.4417,-0.70693 -3.49512,-1.9147 -4.93345,-2.50869z" fill="url(#color-3)"/><path d="M174.50537,78.7686c0.98291,0.20098 3.00293,0.56821 3.84814,1.03696c-0.5376,1.19575 -0.70459,1.67783 -1.03418,2.95547c-0.13037,1.07666 -0.104,2.23828 -0.10693,3.32856c-1.59668,0.65098 -5.21631,1.56167 -5.85937,2.92192c-0.53174,1.12734 0.08936,3.13037 -0.54346,3.62974l-0.9873,0.35991c-0.23584,-1.3916 -0.22119,-2.39019 0.07617,-3.76875l0.03516,-0.16333l-0.03223,0.03252c-0.51562,0.052 -1.32715,0.41001 -1.9541,0.53394l-0.28857,0.05449c0.01318,-4.14287 2.19434,-3.73447 5.59717,-5.19126c-0.03223,-2.16519 0.15967,-3.80903 1.24951,-5.73018z" fill="#0b1d45"/><path d="M175.6582,77.01724c2.30273,-2.48335 6.104,-4.54937 9.57275,-3.27905c1.05762,0.38774 2.85498,1.03711 3.70605,1.73262c-2.86963,-0.85239 -3.76172,-0.33853 -6.49219,0.63003c-1.15283,-0.02666 -2.0874,1.3645 -2.79639,1.73101c-0.99463,-0.70781 -2.70996,-0.69727 -3.99023,-0.8146z" fill="#4350fc"/><path d="M112.39702,86.07217c0.81094,0.45557 2.129,0.94336 3.04292,1.34883l6.55635,2.93892c0.28096,-0.20757 0.17446,-0.07295 0.30952,-0.41133l-0.01685,1.08662c0.75527,0.12817 1.65645,0.44868 2.3124,0.84551c-0.35449,0.44443 -1.78242,2.03262 -1.85449,2.34038l-0.44209,0.45996c-0.01685,3.65259 -0.01465,7.30518 0.00659,10.95762c0.00366,1.39204 0.33457,6.74546 -0.70752,7.36582c-1.07959,-0.14399 -8.01562,-3.28301 -9.35098,-4.24028c-0.25371,-0.23027 -0.42041,-0.58066 -0.43066,-0.91143c-0.1979,-6.35771 0.14517,-12.81562 -0.09697,-19.1707c0.02124,-1.18491 -0.25342,-1.74624 0.67178,-2.60991z" fill="url(#color-4)"/><path d="M122.28896,91.03521c0.75527,0.12817 1.65645,0.44868 2.3124,0.84551c-0.35449,0.44443 -1.78242,2.03262 -1.85449,2.34038l-0.44209,0.45996c0.00396,-1.21523 -0.00132,-2.43062 -0.01582,-3.64585z" fill="#253371"/><path d="M167.65869,89.69004l0.28857,-0.05449c0.62695,-0.12393 1.43848,-0.48193 1.9541,-0.53394l0.03223,-0.03252l-0.03516,0.16333c-0.29736,1.37856 -0.31201,2.37715 -0.07617,3.76875c-4.15576,1.5375 -8.60889,2.2522 -10.51465,6.44063c-0.43213,0.94438 -0.70312,1.95527 -0.7998,2.98989c-0.2168,2.40835 -0.04687,7.50264 -0.04687,10.10845l-0.00732,19.77012c0.00439,1.66714 0.11719,5.41172 -0.05713,6.86851c-0.94922,-0.14297 -3.16699,-0.41777 -3.1875,-1.5438c-0.17432,-9.62021 -0.40869,-19.298 -0.37793,-28.91587c0.01611,-4.51025 -0.52881,-8.92031 2.50195,-12.58345l-0.02051,0.08906c0.91846,-0.98115 2.11084,-2.38242 3.20801,-3.11602c1.10742,-0.74033 3.07031,-1.0355 4.03564,-2.02676c0.69141,-0.3958 2.58545,-0.8625 3.10254,-1.39189z" fill="#0b1d45"/><path d="M112.9541,169.08398l0.00498,-0.18018c0.08057,-2.20605 1.64736,-2.77881 3.62021,-2.70996c1.58687,0.05566 6.0627,-0.24902 7.16001,0.69873c0.29561,0.646 0.42158,1.29346 0.49043,1.99512c0.16831,1.7168 0.32622,9.22266 -0.2042,10.51611c-0.09067,0.22119 -0.04746,0.21826 -0.24419,0.29883c-0.99668,0.40869 -10.90811,0.25635 -12.6624,0.14355c0.54404,-0.09961 1.38223,-0.09375 1.95806,-0.10986c-0.27905,-2.60303 -0.08262,-7.7915 -0.1229,-10.65234z" fill="#aaaff7"/><path d="M89.57725,78.24009c1.14492,-1.71577 2.03115,-0.83379 2.19258,-3.03062l0.03076,0.80361c4.72471,3.65479 12.29985,5.8166 17.59351,8.81938c0.69712,0.39536 2.52905,0.77681 3.00293,1.2397c-0.9252,0.86367 -0.65054,1.425 -0.67178,2.60991c-0.01333,-0.38423 -0.10869,-0.79219 -0.18135,-1.17319c-0.0022,0.75688 -0.01655,1.34268 0.07017,2.09985c-0.64189,-0.28872 -2.14878,-1.01572 -2.74658,-1.2123c-1.10596,-0.66372 -5.01709,-2.36792 -6.31025,-2.95034c-3.77432,-1.6998 -7.72544,-3.64819 -11.52979,-5.21499c-0.93633,-0.73462 -1.03638,-0.8729 -1.4502,-1.99102z" fill="#4350fc"/><path d="M91.80059,76.01309c4.72471,3.65479 12.29985,5.8166 17.59351,8.81938c0.69712,0.39536 2.52905,0.77681 3.00293,1.2397c-0.9252,0.86367 -0.65054,1.425 -0.67178,2.60991c-0.01333,-0.38423 -0.10869,-0.79219 -0.18135,-1.17319l-0.01084,-0.84243c-1.09907,-1.29258 -12.5874,-5.67817 -14.69839,-6.96826c-1.57603,-0.96313 -4.77261,-1.35732 -5.03408,-3.68511z" fill="#253371"/><path d="M124.60137,91.88071c5.11128,2.55015 10.67314,4.85742 15.8313,7.34912c2.10718,1.01792 4.51743,1.99937 6.55854,3.09097c0.01172,0.62769 0.22998,2.50078 0.20654,2.69473c-0.10254,0.06328 -0.28564,0.18589 -0.38818,0.2291l-0.9438,-0.09199c-1.13862,-0.87158 -6.20479,-3.08643 -7.72163,-3.78501c-5.14746,-2.34961 -10.27998,-4.73188 -15.39727,-7.14653c0.07207,-0.30776 1.5,-1.89595 1.85449,-2.34038z" fill="#4350fc"/><path d="M89.57725,78.24009c0.41382,1.11812 0.51387,1.2564 1.4502,1.99102c3.80435,1.5668 7.75547,3.51519 11.52979,5.21499c1.29316,0.58242 5.2043,2.28662 6.31025,2.95034c-1.59023,-0.12539 -5.78188,-2.48481 -7.51934,-3.18091c-2.79668,0.98979 -1.63418,0.37998 -4.08735,-0.20625c-1.3522,-0.32314 -7.62114,-0.12437 -8.35562,0.99463c-0.52764,3.0019 -0.05391,8.51323 -0.21108,11.75757c-0.05039,1.03931 0.11162,2.88677 -0.18882,3.84053c-0.14033,-3.38071 0.01274,-7.43877 -0.02871,-10.8769c-0.02988,-2.48437 -0.1125,-6.97881 0.12261,-9.33369c0.21255,-1.35264 0.38716,-1.96069 0.97808,-3.15132z" fill="#253371"/><path d="M89.57725,78.24009c0.41382,1.11812 0.51387,1.2564 1.4502,1.99102c-1.16909,0.3063 -1.44067,0.39478 -2.42827,1.1603c0.21255,-1.35264 0.38716,-1.96069 0.97808,-3.15132z" fill="#2f37b5"/><path d="M146.99121,102.3208c0.94775,0.46919 2.521,1.08823 2.97803,1.97476c-0.04395,0.77388 -0.28857,0.82544 -0.96826,1.11592c-0.70752,-0.02241 -1.51172,-0.00937 -2.19141,-0.16685c0.10254,-0.04321 0.28564,-0.16582 0.38818,-0.2291c0.02344,-0.19395 -0.19482,-2.06704 -0.20654,-2.69473z" fill="#2f37b5"/><path d="M145.86577,105.15264l0.9438,0.09199c0.67969,0.15747 1.48389,0.14443 2.19141,0.16685c-1.07373,1.15811 -1.34912,1.30137 -1.88965,2.79478l-0.07178,0.20142l-0.1333,-0.07339c0.07324,-1.48799 -0.46274,-1.75854 -1.04048,-3.18164z" fill="#253371"/><path d="M196.7417,79.02671c2.01123,-0.02637 1.68164,1.5186 1.78125,3.03779l-1.021,0.34556c0.00879,-0.78369 0.11133,-2.13018 -0.27539,-2.72725z" fill="#0b1d45"/><path d="M143.804,146.1627c0.32549,-0.68672 0.83262,-1.55903 1.68442,-1.6897c1.95396,-0.29985 4.05894,-0.15483 6.0438,-0.15967c2.26611,-0.00571 4.16895,-0.17725 4.40479,2.59585c0.02344,7.18506 0.11426,14.56494 0.02051,21.73828c0.04102,1.18359 0.271,10.74609 -0.38818,10.90137c-1.87061,0.44092 -10.10024,0.62256 -11.63921,0.00293c-0.44341,-0.91699 -0.24331,-10.1543 -0.21606,-11.92676c-0.15483,-4.20703 0.06152,-8.9502 -0.02739,-13.20996c-0.03179,-1.52344 -0.07881,-6.99902 0.11733,-8.25234z" fill="url(#color-5)"/><path d="M146.67773,165.07764l1.2085,-1.07812l0.16699,0.11719l-0.1377,0.36328l0.68555,0.46289c-0.0835,0.40576 -0.15234,0.40576 -0.42041,0.75732l0.06152,0.24902c0.88477,0.40869 2.88574,0.11572 3.78955,0.36621c0.67383,0.1875 1.76514,1.73877 2.60449,1.84131c0.17285,0.02197 0.50391,0.50244 0.63574,0.67822c0.48047,-0.43359 0.43652,-1.0708 0.46875,-1.74023c0.01172,-0.22559 0.02051,-0.45117 0.0293,-0.67676c0.03516,0.6709 0.0498,1.59229 0.1875,2.22949c0.04102,1.18359 0.271,10.74609 -0.38818,10.90137c-1.87061,0.44092 -10.10024,0.62256 -11.63921,0.00293c-0.44341,-0.91699 -0.24331,-10.1543 -0.21606,-11.92676c0.13169,-0.73828 0.26221,-2.19727 0.65054,-2.66455c0.64263,-0.32959 1.48872,0.03809 2.31313,0.11719z" fill="url(#color-6)"/><path d="M143.804,146.1627c0.32549,-0.68672 0.83262,-1.55903 1.68442,-1.6897c1.95396,-0.29985 4.05894,-0.15483 6.0438,-0.15967c2.26611,-0.00571 4.16895,-0.17725 4.40479,2.59585l-0.2666,-0.33398c-0.81592,-0.06592 -1.45898,0.58594 -2.24561,0.68994c-2.78467,0.36475 -5.67627,0.65771 -8.48525,0.5376c-0.52412,-0.02197 -0.44106,-0.14062 -1.01543,0.09668c-0.15366,-0.4248 -0.11221,-1.23926 -0.12012,-1.73672z" fill="#8381fc"/><path d="M128.01606,162.36035c-0.02549,-1.24658 -0.24727,-4.32861 0.40825,-5.33057c0.54844,-0.65918 2.27769,-1.13086 3.04761,-1.02979c2.61094,0.34277 8.47778,-1.3374 8.39473,2.72168l0.03193,12.62256c0.00059,1.35498 0.23335,7.48975 -0.48999,8.3335c-0.91084,0.30029 -10.4165,0.31201 -11.15464,-0.06592c-0.33779,-1.24658 -0.24038,-5.12842 -0.24229,-6.64893z" fill="#4350fc"/><path d="M128.01606,162.36035c-0.02549,-1.24658 -0.24727,-4.32861 0.40825,-5.33057c0.54844,-0.65918 2.27769,-1.13086 3.04761,-1.02979c2.61094,0.34277 8.47778,-1.3374 8.39473,2.72168c-0.08291,0.95068 -0.15337,1.90283 -0.21123,2.85498c-0.28169,-0.82764 0.19468,-0.80127 -0.25649,-1.2876c-1.71606,0.06885 -10.20176,0.0498 -10.99189,0.7749c-0.10327,0.58301 -0.10298,0.78076 -0.10649,1.37842l-0.12319,0.06592z" fill="#4592fc"/><path d="M97.846,131.80942c1.39893,0.27158 16.89961,7.52783 17.6064,8.28018c0.41953,0.44648 0.65142,1.18799 0.61875,1.79341c-0.04658,0.86338 -0.27876,1.31587 -0.91699,1.88101c-1.5854,-0.39243 -17.16709,-7.64399 -17.73896,-8.39956c-0.41279,-0.54521 -0.56777,-1.18315 -0.4957,-1.85947c0.0876,-0.82178 0.28521,-1.18491 0.92651,-1.69556z" fill="#ffffff"/><path d="M97.56885,141.15117c1.97314,0.02183 11.20298,5.13193 13.53281,6.19453c1.00605,0.4585 1.10347,2.70117 0.13594,3.79102c-1.78301,-0.01465 -11.43735,-5.22539 -13.62598,-6.2499c-0.88828,-0.41587 -0.9353,-2.73794 -0.04277,-3.73564z" fill="#ffffff"/><path d="M91.76982,75.20947c0.57627,-2.26582 1.77715,-3.26982 3.74604,-4.39658c4.00342,-2.29072 8.29585,-4.37212 12.44561,-6.3873l17.16108,-8.31064l12.90894,-6.20435c5.24194,-2.50356 9.7522,-5.325 15.75366,-3.74209c1.90576,0.50273 3.73975,1.48315 5.5166,2.32646l7.17041,3.4251c2.58252,1.24424 5.18408,2.45171 7.75195,3.7229c0.54199,0.26851 1.00781,0.62959 1.14258,1.24307c-0.38086,0.59004 -10.63037,5.19126 -12.271,5.96045l-24.81855,11.57358l-14.14438,6.58271c-3.76904,1.74946 -7.81978,3.66343 -11.73574,5.06938c-0.47388,-0.46289 -2.30581,-0.84434 -3.00293,-1.2397c-5.29365,-3.00278 -12.8688,-5.1646 -17.59351,-8.81938z" fill="#2f37b5"/><path d="M112.15078,199.82959c7.52358,-0.75439 14.23872,4.72266 15.01172,12.24463c0.77314,7.52197 -4.6875,14.25146 -12.20742,15.04248c-7.54614,0.79395 -14.30317,-4.68896 -15.07896,-12.2373c-0.77578,-7.54834 4.72471,-14.29248 12.27466,-15.0498z" fill="#0b1d45"/><path d="M112.69204,206.2207c4.01616,-0.46582 7.64663,2.41992 8.09897,6.43652c0.45249,4.01807 -2.44526,7.63916 -6.4645,8.07861c-4.00034,0.43652 -7.60049,-2.44482 -8.05078,-6.44385c-0.45044,-3.99902 2.4189,-7.6084 6.41631,-8.07129z" fill="#ffffff"/><path d="M61.03711,190.34473c4.99863,-0.32959 9.49336,1.16016 13.27017,4.42969c-1.223,1.7417 -2.4252,3.49658 -3.60645,5.26611c-2.62764,-1.91895 -4.61118,-3.31934 -7.94736,-3.52002c-2.74189,-0.16553 -6.21064,0.98291 -5.97979,4.22314c0.27495,3.8584 7.99014,4.43848 10.79019,5.81689c1.84629,0.9082 3.38613,1.34033 4.85962,2.87988c3.79585,3.57861 3.50859,10.10742 -0.11675,13.71973c-2.87227,2.86084 -6.3895,3.60498 -10.33564,3.67676c-5.41392,-0.15674 -9.42744,-1.51465 -13.49297,-5.17676c0.95112,-1.55713 2.69575,-3.99023 3.81021,-5.44775c3.23774,2.79346 6.45879,4.53662 10.84028,4.27002c2.53579,-0.15527 5.21968,-1.69922 4.73452,-4.50293c-0.63032,-3.64307 -7.29492,-4.12793 -10.14961,-5.37305c-1.85259,-0.80713 -3.40679,-1.25537 -4.95542,-2.62061c-4.00708,-3.1377 -4.00972,-9.75 -0.8978,-13.51172c2.26392,-2.73633 5.66338,-3.84375 9.17681,-4.12939z" fill="#0b1d45"/><path d="M161.29248,191.17676c2.17383,-0.03223 4.34766,-0.03076 6.52002,0.00439c0.2168,6.18896 0.02344,13.69922 0.03369,19.98486c3.14355,-3.44678 6.31787,-6.86572 9.52148,-10.25684c2.69531,-0.03076 5.39063,-0.02344 8.08447,0.0249c-0.73975,0.9375 -2.4917,2.66162 -3.37793,3.58301l-6.60205,6.84668c2.18701,3.0542 4.39893,6.09229 6.63428,9.11279c1.3418,1.87793 2.73926,3.67236 4.0166,5.60596c-2.50635,0.11133 -5.36865,0.03809 -7.90137,0.0293c-0.73535,-0.84668 -1.97314,-2.69385 -2.66162,-3.67529c-1.56738,-2.26465 -3.1626,-4.51025 -4.78564,-6.73682c-0.97266,0.94043 -1.97754,2.00537 -2.92969,2.97656c-0.0293,2.48145 0.03809,4.93945 -0.06299,7.42676c-2.08887,0.08643 -4.47656,0.03223 -6.57422,0.01758c-0.1084,-1.79736 -0.02051,-4.63184 -0.01904,-6.48047l0.01758,-12.89062l-0.0249,-9.47754c-0.00732,-1.80176 -0.07764,-4.34326 0.11133,-6.09521z" fill="#0b1d45"/><path d="M227.521,191.18262c2.14453,-0.03369 4.28906,-0.03662 6.43213,-0.01172c0.08496,4.29199 0.01172,8.83008 0.01465,13.13672c3.41602,-4.75635 9.95654,-4.99365 14.11377,-1.2583c3.31055,2.9751 2.80225,8.74365 2.79199,12.72803l-0.04395,10.27148c-1.97314,0.11426 -4.36523,0.07324 -6.37061,0.08789c-0.12891,-2.96484 -0.01758,-6.87891 -0.01611,-9.91406c0.02344,-2.45215 0.43506,-6.50537 -1.2832,-8.4126c-1.86914,-2.07568 -5.67627,-1.87793 -7.64502,0.04834c-0.62549,0.60791 -1.06494,1.38135 -1.27148,2.22949c-0.42334,1.73584 -0.29443,5.13135 -0.29004,7.0752c0.02197,2.96484 0.01758,5.92969 -0.01318,8.89453c-2.146,0.08057 -4.29346,0.08496 -6.43945,0.01025c-0.03516,-1.32129 -0.04834,-2.71436 -0.02344,-4.03271c0.19189,-10.23193 -0.25781,-20.64258 0.04395,-30.85254z" fill="#4350fc"/><path d="M144.09785,200.15625c4.84014,-0.4248 9.23174,1.46484 12.14092,5.34229c-0.98437,0.98438 -3.46582,2.88135 -4.64795,3.83496c-3.00586,-3.17725 -7.37798,-4.78418 -11.13032,-1.36084c-4.86563,4.43994 -1.64414,13.39014 5.33599,12.86279c2.73867,-0.20801 4.06436,-1.32275 5.78848,-3.27832l0.98145,0.75c1.28027,0.9873 2.54736,1.99072 3.80127,3.00879c-4.31982,6.40869 -14.24941,7.19971 -20.10762,2.5708c-2.72959,-2.15479 -4.47905,-5.31592 -4.85508,-8.77295c-0.43242,-3.61523 0.61655,-7.25098 2.9083,-10.07959c2.6064,-3.19922 5.79272,-4.46484 9.78457,-4.87793z" fill="#0b1d45"/><path d="M211.44873,200.44775c3.8877,-0.39551 7.37549,0.99756 10.42822,3.29004c-0.88184,1.35645 -2.13867,3.00732 -3.104,4.34619c-1.92334,-1.38135 -3.11133,-2.16211 -5.55762,-2.48584c-1.54395,-0.20508 -4.54541,0.38232 -4.41797,2.38477c0.15381,2.42285 6.4248,2.92383 8.22217,3.78223c1.22461,0.58447 2.44189,0.94482 3.44385,1.98926c2.88867,2.61035 2.66602,7.5 -0.06006,10.17627c-2.3833,2.33936 -5.23682,2.71875 -8.44482,2.79492c-4.19824,-0.23584 -7.08838,-1.08838 -10.35352,-3.82617c0.97119,-1.47803 2.11816,-3.03369 3.15234,-4.48682c2.37744,1.88086 7.69775,4.95703 10.979,1.97314c0.95068,-0.86426 0.34277,-2.6792 -0.94482,-3.24902c-4.31689,-1.91455 -11.22363,-1.771 -12.0835,-7.771c-0.25488,-1.78857 0.375,-4.30811 1.57471,-5.71143c1.8252,-2.13428 4.45898,-2.95605 7.16602,-3.20654z" fill="#4350fc"/><path d="M82.17993,194.21631c2.19082,-0.02783 4.38193,-0.03369 6.5729,-0.01904l0.01245,6.67969c2.38711,-0.0249 4.77451,-0.02197 7.16162,0.00879c0.02534,1.83984 0.01392,3.67969 -0.03442,5.51953l-7.1228,0.05273c-0.00762,2.47998 -0.41616,10.55273 0.35977,12.4585c0.30264,0.74268 0.84272,1.34473 1.6002,1.6333c1.58042,0.60059 3.22646,-0.1333 4.64209,-0.81152l1.30107,3.78076l0.42686,1.27295c-4.97856,3.29883 -13.40933,2.58838 -14.58398,-4.00635c-0.71279,-4.00049 -0.36489,-10.16309 -0.34922,-14.354c-1.4584,0.00146 -2.9168,-0.00732 -4.3752,-0.0249c-0.04937,-1.78125 -0.01479,-3.70752 -0.0126,-5.50195c1.37344,-0.05273 2.99355,-0.02344 4.38516,-0.03076c-0.01025,-2.21924 -0.00483,-4.43848 0.01611,-6.65771z" fill="#0b1d45"/><path d="M190.50439,200.95313c2.00391,-0.06006 4.36523,-0.03223 6.375,0.01465c0.11719,6.4043 -0.04248,12.86572 0.0293,19.27295c0.01904,1.78418 0.08203,4.0957 -0.08643,5.82715l-6.32373,0.07471c-0.19336,-2.59277 -0.0542,-7.20557 -0.05127,-9.94629c0.00586,-4.96436 -0.08789,-10.30518 0.05713,-15.24316z" fill="#4350fc"/><path d="M192.76318,189.62988c2.09912,-0.52441 4.22461,0.75879 4.7373,2.8623c0.5127,2.10205 -0.78369,4.22021 -2.89014,4.72119c-2.08887,0.49512 -4.18506,-0.78809 -4.69336,-2.87402c-0.5083,-2.08594 0.76318,-4.18945 2.84619,-4.70947z" fill="#4350fc"/><path d="M201.99609,237.68408c0.91992,-0.25635 1.90576,0.00879 2.57373,0.69141c0.66797,0.68262 0.9126,1.67285 0.63721,2.58691c-0.27539,0.91406 -1.02539,1.60693 -1.9585,1.80762c-1.38574,0.29736 -2.75684,-0.55957 -3.09521,-1.93506c-0.33838,-1.37695 0.47754,-2.77295 1.84277,-3.15088z" fill="#0b1d45"/><path d="M202.16016,238.60547c0.57568,-0.19922 1.21436,-0.07178 1.67139,0.33105c0.45703,0.40283 0.66211,1.021 0.53613,1.61719c-0.12451,0.59619 -0.56104,1.07959 -1.14111,1.26563c-0.8833,0.28271 -1.83105,-0.19775 -2.12402,-1.07959c-0.2915,-0.88037 0.17871,-1.83252 1.05762,-2.13428z" fill="#ffffff"/><path d="M227.72461,237.62109c1.25977,-0.02051 2.29834,-0.11133 3.4248,0.5874c1.48975,0.92578 1.18945,2.49902 0.37646,3.78076c-1.25977,0.99902 -2.18701,0.77783 -3.81592,0.75439c0.0293,-1.70801 0.03516,-3.41455 0.01465,-5.12256z" fill="#0b1d45"/><path d="M228.66504,238.45605c2.16357,-0.0293 3.15674,0.9873 2.03174,3.02197c-0.5874,0.38818 -1.20996,0.63281 -1.81934,0.2168c-0.41016,-0.83496 -0.2417,-2.26172 -0.2124,-3.23877z" fill="#ffffff"/><path d="M111.53364,240.5918c0.35112,-0.70898 1.28979,-3.19189 2.198,-2.91064c0.59707,0.84521 0.74136,4.46045 -0.01831,5.09326l-0.35229,-0.12598c-0.26953,-0.40283 -0.1686,-0.98584 -0.14648,-1.50146c0.00908,-0.57275 0.0416,-0.854 -0.08643,-1.40625c-0.61831,0.31055 -0.81738,1.72412 -1.63184,1.91748c-0.63691,-0.36475 -1.24937,-1.68896 -1.6229,-2.38037c0.01772,0.854 0.2833,2.95752 -0.4106,3.45703l-0.38159,-0.06885c-0.29707,-0.84668 -0.1311,-3.99756 -0.10356,-5.04932c0.11646,0 0.68848,-0.00293 0.7793,0.05127c0.68745,0.41455 1.43232,2.2207 1.77671,2.92383z" fill="#0b1d45"/><path d="M74.07378,237.6416c1.19458,-0.02783 2.85322,-0.21973 3.65171,0.84814c0.29575,1.08691 -0.43447,1.43115 -0.74473,2.3291c-0.05947,0.17285 0.71865,1.48975 0.86895,1.79736c-0.23467,0.17725 -0.60674,0.12891 -0.96709,0.15234c-0.4021,-0.70166 -0.88096,-1.70947 -1.61938,-1.95996l0.24873,0.02051l-0.27568,0.01465c-0.08379,0.51709 -0.13931,1.53809 -0.40972,1.86035l-0.57422,0.00293c-0.35991,-0.49805 -0.18486,-4.16455 -0.17856,-5.06543z" fill="#0b1d45"/><path d="M75.00645,238.45752l0.13843,-0.00293c0.60879,-0.00732 1.08604,-0.0542 1.53135,0.37354c0.19087,0.49512 0.09434,0.63867 -0.0583,1.1499c-0.53481,0.08057 -0.92944,0.20947 -1.4105,0c-0.3104,-0.41309 -0.21445,-0.97559 -0.20098,-1.52051z" fill="#ffffff"/><path d="M124.29697,237.59473c0.07236,0.00293 0.51621,0.01465 0.58916,0.0498c0.89004,0.43066 2.17368,2.67773 2.70923,3.51563c-0.0019,-0.9624 -0.16172,-2.96045 0.33691,-3.59033l0.24316,0.04248c0.52148,0.83203 0.39565,3.95068 0.41235,5.13135c-0.0668,0.00293 -0.56719,0.02344 -0.63896,0c-0.75908,-0.24756 -2.25396,-2.77148 -2.69985,-3.43506c0.0145,0.74854 0.1771,2.76563 -0.24888,3.29297c-0.14839,0.18457 -0.21943,0.11572 -0.51606,0.12598c-0.41602,-0.53613 -0.20713,-4.24072 -0.18706,-5.13281z" fill="#0b1d45"/><path d="M173.06104,237.56836l0.76025,0.06738c0.54199,0.45264 2.11084,4.30518 1.7168,5.07568c-1.09863,0.13037 -0.40576,-0.47607 -1.21143,-1.04883l-1.62891,0.01025c-0.41895,0.27539 -0.32227,0.33545 -0.54053,0.93164c-0.46289,0.22412 -0.2168,0.16699 -0.77344,0.11865l-0.16113,-0.2168c0.48486,-1.55859 1.24072,-3.39844 1.83838,-4.93799z" fill="#0b1d45"/><path d="M82.3002,237.62988c1.47642,-0.03076 1.44316,1.35791 1.97285,2.52832c0.16421,0.36182 0.80479,2.21338 0.79058,2.51514c-1.38135,0.31494 -0.52251,-0.48486 -1.5375,-1.01514c-1.34766,-0.02051 -1.70347,-0.34131 -2.17412,0.9668c-0.42583,0.19336 -0.42056,0.15088 -0.89385,0.06738c-0.05889,-0.40869 1.5873,-4.41357 1.84204,-5.0625z" fill="#0b1d45"/><path d="M82.7187,239.0127c0.44429,0.43213 0.76641,1.32568 0.40518,1.89551c-0.49966,-0.05566 -0.45366,0.01465 -0.82354,-0.24463c-0.09697,-0.62842 0.16465,-0.9873 0.41836,-1.65088z" fill="#ffffff"/><path d="M133.12192,237.59473c0.26777,0.01611 0.48311,0.04395 0.74897,0.07617c0.59736,0.57422 2.16973,4.59961 1.97944,5.03613c-1.47246,0.12744 -0.45439,-0.5127 -1.4877,-1.08252c-0.54902,0.00293 -1.03594,0.02197 -1.58408,0.0542c-0.4686,0.29883 -0.33691,0.27539 -0.58403,0.92578c-0.48457,0.23877 -0.21914,0.16992 -0.84829,0.0835c-0.12773,-0.4541 1.5063,-4.396 1.77568,-5.09326z" fill="#0b1d45"/><path d="M133.57925,238.9834c0.35464,0.63721 0.63135,1.0459 0.54199,1.77246l-0.37808,0.27539c-0.4459,-0.15234 -0.32021,-0.05127 -0.64087,-0.3457c-0.12861,-0.56104 0.23174,-1.14404 0.47695,-1.70215z" fill="#ffffff"/><path d="M118.73013,237.58447c0.35874,0.01904 0.41514,0.03223 0.76523,0.12012c0.55796,0.61816 2.01563,4.46191 1.99307,4.97754c-1.56489,0.27832 -0.53994,-0.64307 -1.62759,-1.04297c-1.53281,-0.07178 -1.40522,0.10254 -2.76079,1.12207l-0.16963,-0.03955c0.02285,-0.81738 1.42192,-4.2085 1.79971,-5.13721z" fill="#0b1d45"/><path d="M119.14438,239.01563c0.37324,0.3457 0.61802,1.19678 0.59517,1.70215l-0.27261,0.23877c-0.46201,-0.09814 -0.49277,-0.02783 -0.79878,-0.30322c-0.11543,-0.49512 0.25854,-1.13379 0.47622,-1.6377z" fill="#ffffff"/><path d="M139.9229,237.62402c1.43892,-0.1333 1.66289,-0.05713 2.74438,0.88037l-0.01978,0.25195c-0.95127,0.10693 -2.56025,-0.55225 -3.3501,0.35742c-0.50391,0.58008 -0.17622,2.1709 0.50933,2.56641c0.65845,0.37939 1.55244,0.37939 2.06265,-0.25049l-0.04058,-0.34131c-0.48369,-0.39258 -0.56631,-0.271 -1.31909,-0.35156c0.1106,-0.39404 0.03516,-0.2666 0.31655,-0.56543c0.61846,-0.15527 1.31851,-0.36914 1.8769,-0.04102c0.38789,0.80713 0.32666,1.69043 -0.46318,2.17529c-3.4207,2.10645 -6.01758,-2.64111 -2.31709,-4.68164z" fill="#0b1d45"/><path d="M94.65674,237.50244c0.37178,0.06299 0.38525,0.05273 0.72129,0.2124c0.33003,0.62988 0.19629,1.48535 0.16992,2.23682c0.59224,-0.76172 1.5312,-2.146 2.54224,-2.2207l0.07236,0.24316c-0.27114,0.71484 -0.9123,1.31396 -1.43965,1.90283c0.41865,0.62256 0.88506,1.26563 1.31938,1.88232c0.39067,0.48486 0.59062,0.57129 0.19497,1.07373c-0.96943,-0.00586 -1.23823,-1.20557 -2.16021,-2.10645l-0.28857,0.06152c-0.5146,0.67383 0.16655,1.51025 -0.5688,2.01416l-0.4418,-0.08203c-0.2729,-0.40576 -0.13813,-4.4502 -0.12114,-5.21777z" fill="#0b1d45"/><path d="M215.97363,239.83887c0.78662,-0.92871 1.4165,-1.86621 2.60596,-2.19873l0.08203,0.19922c-0.30615,0.78809 -1.01807,1.44434 -1.60693,2.09033l1.35938,1.75781c0.31641,0.38525 0.41602,0.49219 0.65186,0.94922l-0.41602,0.2168c-0.86719,-0.09521 -1.43848,-1.31689 -2.11523,-2.10791l-0.23145,0.01758c-0.34717,0.4541 -0.32666,1.17627 -0.46143,1.83398c-0.33838,0.2168 -0.14795,0.14063 -0.63867,0.08789c-0.28271,-0.56543 -0.1377,-4.3418 -0.11279,-5.15186c0.40283,0.05859 0.44531,0.02051 0.74854,0.271c0.27979,0.59619 0.16406,1.34473 0.13477,2.03467z" fill="#0b1d45"/><path d="M160.5498,237.6123c0.63428,-0.05859 2.47705,-0.06152 2.33643,0.89795c-0.63867,0.30615 -1.39746,-0.0542 -2.27783,0.22998c-0.17139,0.96533 1.89404,0.96533 2.65137,2.50928c-0.00146,1.01074 -0.87012,1.39893 -1.75488,1.66406c-0.67529,-0.08643 -1.75488,-0.30908 -2.07861,-0.94482l0.28564,-0.39844c0.8584,-0.22852 0.93604,0.50244 1.94678,0.41016c0.42627,-0.38086 0.31055,-0.15674 0.42627,-0.65625c-0.57568,-1.06934 -4.4751,-1.51172 -1.53516,-3.71191z" fill="#0b1d45"/><path d="M189.09375,237.59326c1.27441,-0.03955 1.39893,-0.08057 2.33057,0.72949l0.00732,0.18896c-0.71484,0.27832 -2.09619,-0.20654 -2.47119,0.41162c0.31055,0.64453 5.55322,2.7832 0.9873,3.95068c-0.64014,-0.06152 -1.83838,-0.24316 -2.00391,-0.95068l0.22412,-0.35889c0.85254,-0.10693 0.76465,0.41602 1.83105,0.44238c0.49951,-0.28418 0.32959,-0.08936 0.56689,-0.56836c-0.5874,-1.21143 -4.56006,-1.7417 -1.47217,-3.84521z" fill="#0b1d45"/><path d="M221.67627,237.62109c0.89209,-0.00293 2.74219,-0.22266 3.30322,0.38965l-0.08936,0.31055c-0.66357,0.38965 -1.39453,-0.11133 -2.15186,0.31055c-0.13184,0.50537 -0.12451,0.47021 -0.03369,0.9873c0.57861,0.40869 1.05908,-0.11572 1.78125,0.25049c0.11279,0.45703 0.15088,0.25635 -0.06738,0.62695c-0.58008,0.07031 -1.40771,-0.04687 -1.83105,0.22705c0.02344,0.48926 0.02783,0.5918 0.13477,1.09131c0.7749,0.44824 1.84863,-0.30469 2.33789,0.48779l-0.12744,0.22998c-0.54199,0.36035 -2.49316,0.21533 -3.271,0.20361z" fill="#0b1d45"/><path d="M209.64697,237.60938c0.1875,-0.01465 0.375,-0.0249 0.56396,-0.0293c0.69873,-0.00879 1.96143,0.23877 1.91602,1.11621c-0.68994,0.66797 -1.96143,-0.46729 -2.52979,-0.08203c-1.5249,1.03271 -1.01514,2.76709 0.5332,3.36182c0.51563,-0.01904 0.5376,0.01758 0.97119,-0.28711c0.4585,-0.32666 0.21533,-0.24316 0.74268,-0.29883l0.24756,0.21387l-0.01904,0.36475c-2.15186,3.18896 -7.10449,-2.22949 -2.42578,-4.35937z" fill="#0b1d45"/><path d="M89.08389,237.62109c1.00254,-0.06445 2.09048,0.01611 2.72739,0.94482c-0.28154,0.3999 -0.0939,0.22998 -0.69741,0.38818c-0.57656,-0.27539 -1.13042,-0.64014 -1.80439,-0.42334c-1.92466,0.62256 -0.93911,4.32422 1.13057,3.28564c0.50259,-0.36035 0.57832,-0.50537 1.16045,-0.24463l0.06006,0.31787c-0.4979,0.92285 -1.61118,1.06494 -2.55337,0.84668c-0.63252,-0.13916 -1.17393,-0.54639 -1.48535,-1.11475c-0.91011,-1.65967 -0.06152,-3.16699 1.46206,-4.00049z" fill="#0b1d45"/><path d="M145.81377,237.61523c0.66504,0 2.96162,-0.10693 3.34541,0.35596c-0.5127,0.52295 -1.35059,0.54199 -2.03906,0.55078l-0.20215,0.00146c-0.19775,0.26514 -0.17725,0.86133 -0.20801,1.25537c0.00879,0.27393 0.00586,0.54053 0.04541,0.81152c0.00879,0.70166 -0.10693,0.67529 0.21973,1.15137c0.51563,0.25195 0.54346,0.25635 1.12354,0.26514l0.91699,0.01465l0.14648,0.21533l-0.11279,0.38818c-0.48193,0.19336 -2.60317,0.12158 -3.26074,0.11865c0.02988,-1.70947 0.03838,-3.41895 0.0252,-5.12842z" fill="#0b1d45"/><path d="M179.69824,239.63379c0.3999,-0.65186 0.97412,-1.90283 1.79736,-1.99072l0.08496,0.29004c-0.1333,0.7749 -0.63281,1.41211 -1.06641,2.09473c-0.66943,1.07227 -0.03369,1.979 -0.63135,2.70703l-0.49951,-0.0249c-0.26367,-0.4541 -0.1582,-1.53369 -0.16113,-2.16357c-0.43506,-0.70459 -1.47803,-2.22949 -1.63477,-2.9165c0.38525,0.00146 0.40723,0.00586 0.78369,0.09082c0.60938,0.50977 0.92578,1.20996 1.32715,1.91309z" fill="#0b1d45"/><path d="M193.94092,237.65479c1.13525,-0.01904 2.78467,-0.09375 3.87451,0.00732c0.24316,0.35156 0.19482,0.15381 0.20508,0.58301c-0.28271,0.22559 -1.06348,0.27393 -1.48535,0.33691c-0.20801,0.54199 -0.12158,2.07715 -0.11133,2.75098c0.01025,0.63721 0.10693,0.99609 -0.26953,1.41943c-0.45703,0 -0.271,0.08203 -0.60352,-0.14941c-0.22266,-1.31689 -0.00879,-2.64551 -0.17285,-3.98145c-0.58447,-0.41895 -0.62988,0.16699 -1.37109,-0.37061z" fill="#0b1d45"/><path d="M67.3667,237.64307c0.96108,-0.00879 3.45483,-0.22266 4.02026,0.30908l-0.01934,0.32227l-0.23481,0.1875c-0.44619,-0.01318 -0.75981,-0.06738 -1.16675,0.10986c-0.21885,0.65332 -0.11968,2.24414 -0.10547,3.01758c0.00132,0.31787 -0.01304,0.65771 -0.02065,0.97705l-0.36606,0.2915l-0.25137,-0.04102c-0.69023,-0.89648 -0.07222,-3.70605 -0.49014,-4.32275c-0.42466,-0.0293 -0.64541,-0.0249 -1.0626,-0.01172c-0.35815,-0.33545 -0.24624,-0.20654 -0.30308,-0.83936z" fill="#0b1d45"/><path d="M165.50684,237.66064c0.9668,-0.00732 3.36475,-0.20068 3.99609,0.28711l-0.01318,0.15967c-0.41895,0.32227 -0.97559,0.39844 -1.50146,0.52295c-0.19043,0.66797 -0.11426,2.19727 -0.10693,2.95898c-0.01465,0.64746 0.1084,0.7793 -0.21973,1.14551l-0.46143,0.00732c-0.54639,-0.5625 -0.08789,-2.88281 -0.22705,-3.75146c-0.17432,-1.0957 -0.67822,-0.12598 -1.43408,-0.72803z" fill="#0b1d45"/><path d="M146.70996,239.77881c0.65918,-0.01758 1.19971,-0.10693 1.77539,0.17578l0.12305,0.22412c-0.53027,0.52148 -1.05469,0.4043 -1.85303,0.41162c-0.03955,-0.271 -0.03662,-0.5376 -0.04541,-0.81152z" fill="#253371"/></g></svg></svg>